<svg width="256" height="256" viewBox="0 0 256 256" fill="none" xmlns="http://www.w3.org/2000/svg">
<g clip-path="url(#clip0_24_13)">
<mask id="mask0_24_13" style="mask-type:luminance" maskUnits="userSpaceOnUse" x="0" y="0" width="256" height="256">
<path d="M192 0H64C28.6538 0 0 28.6538 0 64V192C0 227.346 28.6538 256 64 256H192C227.346 256 256 227.346 256 192V64C256 28.6538 227.346 0 192 0Z" fill="white"/>
</mask>
<g mask="url(#mask0_24_13)">
<path d="M192 0H64C28.6538 0 0 28.6538 0 64V192C0 227.346 28.6538 256 64 256H192C227.346 256 256 227.346 256 192V64C256 28.6538 227.346 0 192 0Z" fill="#121212"/>
</g>
<g clip-path="url(#clip1_24_13)">
<path d="M117.983 115.118L88.8991 116.908C88.4019 114.422 87.333 112.185 85.6924 110.196C84.0517 108.158 81.8891 106.542 79.2044 105.349C76.5695 104.106 73.4125 103.484 69.7336 103.484C64.8117 103.484 60.6604 104.528 57.2797 106.616C53.899 108.655 52.2087 111.389 52.2087 114.82C52.2087 117.554 53.3025 119.866 55.49 121.755C57.6775 123.644 61.431 125.16 66.7506 126.304L87.4821 130.48C98.6185 132.767 106.921 136.446 112.39 141.517C117.859 146.588 120.593 153.25 120.593 161.503C120.593 169.01 118.381 175.597 113.956 181.265C109.581 186.933 103.565 191.357 95.909 194.539C88.3025 197.671 79.5276 199.237 69.5844 199.237C54.4211 199.237 42.3401 196.08 33.3415 189.766C24.3927 183.403 19.1476 174.752 17.6064 163.815L48.8529 162.174C49.7975 166.798 52.0844 170.327 55.7137 172.763C59.3429 175.15 63.9914 176.343 69.659 176.343C75.2272 176.343 79.7016 175.274 83.0823 173.136C86.5127 170.949 88.2527 168.14 88.3025 164.71C88.2527 161.826 87.0347 159.464 84.6483 157.625C82.262 155.736 78.583 154.294 73.6114 153.3L53.7748 149.347C42.5887 147.11 34.2613 143.232 28.7925 137.714C23.3735 132.195 20.664 125.16 20.664 116.609C20.664 109.251 22.6526 102.913 26.6299 97.593C30.6569 92.2734 36.2996 88.1719 43.5581 85.2883C50.8664 82.4048 59.4175 80.9631 69.2116 80.9631C83.6789 80.9631 95.0638 84.0206 103.366 90.1356C111.719 96.2507 116.591 104.578 117.983 115.118ZM191.024 82.4545V106.318H122.044V82.4545H191.024ZM137.704 55.0114H169.472V161.801C169.472 164.734 169.92 167.021 170.815 168.662C171.71 170.253 172.953 171.371 174.544 172.018C176.184 172.664 178.073 172.987 180.211 172.987C181.703 172.987 183.194 172.863 184.686 172.614C186.177 172.316 187.32 172.092 188.116 171.943L193.112 195.583C191.521 196.08 189.284 196.652 186.401 197.298C183.517 197.994 180.012 198.417 175.886 198.566C168.23 198.864 161.518 197.845 155.751 195.509C150.034 193.172 145.584 189.543 142.402 184.621C139.22 179.699 137.654 173.484 137.704 165.977V55.0114ZM219.787 198.939C214.866 198.939 210.64 197.199 207.11 193.719C203.63 190.189 201.89 185.963 201.89 181.041C201.89 176.169 203.63 171.993 207.11 168.513C210.64 165.033 214.866 163.293 219.787 163.293C224.56 163.293 228.736 165.033 232.316 168.513C235.895 171.993 237.685 176.169 237.685 181.041C237.685 184.322 236.84 187.33 235.15 190.065C233.509 192.749 231.346 194.912 228.662 196.553C225.977 198.143 223.019 198.939 219.787 198.939Z" fill="white"/>
</g>
</g>
<defs>
<clipPath id="clip0_24_13">
<rect width="256" height="256" fill="white"/>
</clipPath>
<clipPath id="clip1_24_13">
<rect width="221" height="145" fill="white" transform="translate(17 55)"/>
</clipPath>
</defs>
</svg>
