<svg width="135" height="36" viewBox="0 0 135 36" fill="none" xmlns="http://www.w3.org/2000/svg">
<path d="M12.8344 16.5016L9.11572 16.7249C9.05215 16.4147 8.91548 16.1355 8.7057 15.8873C8.49593 15.6329 8.21941 15.4312 7.87613 15.2823C7.53922 15.1272 7.13556 15.0496 6.66516 15.0496C6.03583 15.0496 5.50503 15.1799 5.07277 15.4405C4.6405 15.6949 4.42436 16.0362 4.42436 16.4643C4.42436 16.8056 4.56421 17.0941 4.84392 17.3299C5.12362 17.5657 5.60356 17.7549 6.28374 17.8976L8.93455 18.4188C10.3585 18.7042 11.4201 19.1634 12.1193 19.7963C12.8186 20.4292 13.1682 21.2606 13.1682 22.2905C13.1682 23.2275 12.8854 24.0496 12.3196 24.757C11.7602 25.4643 10.991 26.0165 10.012 26.4137C9.03944 26.8046 7.91745 27 6.64608 27C4.70724 27 3.16253 26.606 2.01195 25.818C0.86771 25.0238 0.197062 23.9441 0 22.5791L3.99528 22.3743C4.11605 22.9514 4.40847 23.392 4.87252 23.696C5.33657 23.9937 5.93093 24.1427 6.65562 24.1427C7.36759 24.1427 7.9397 24.0093 8.37197 23.7425C8.81059 23.4695 9.03308 23.1189 9.03944 22.6908C9.03308 22.3309 8.87734 22.0362 8.5722 21.8066C8.26708 21.5708 7.79667 21.3909 7.16098 21.2668L4.62461 20.7735C3.19432 20.4943 2.12955 20.0104 1.43029 19.3216C0.737394 18.6329 0.390946 17.7549 0.390946 16.6877C0.390946 15.7694 0.64522 14.9783 1.15377 14.3144C1.66867 13.6505 2.39018 13.1386 3.31827 12.7787C4.25273 12.4188 5.34611 12.2389 6.59841 12.2389C8.44825 12.2389 9.90401 12.6205 10.9656 13.3837C12.0335 14.1468 12.6565 15.1861 12.8344 16.5016ZM22.1738 12.425V15.4033H13.3536V12.425H22.1738ZM15.3561 9H19.4181V22.3278C19.4181 22.6939 19.4754 22.9793 19.5898 23.1841C19.7042 23.3826 19.8631 23.5223 20.0665 23.6029C20.2763 23.6835 20.5179 23.7239 20.7912 23.7239C20.9819 23.7239 21.1726 23.7084 21.3633 23.6774C21.554 23.6401 21.7002 23.6122 21.8019 23.5936L22.4408 26.544C22.2374 26.606 21.9513 26.6774 21.5826 26.758C21.2139 26.8449 20.7658 26.8976 20.2381 26.9162C19.2592 26.9535 18.401 26.8263 17.6637 26.5346C16.9325 26.243 16.3637 25.7901 15.9568 25.1758C15.55 24.5615 15.3497 23.7859 15.3561 22.849V9ZM27.6537 26.9907C26.7193 26.9907 25.8865 26.8325 25.1555 26.516C24.4244 26.1934 23.846 25.7188 23.4201 25.092C23.0006 24.4591 22.7907 23.6712 22.7907 22.728C22.7907 21.9338 22.9401 21.2668 23.2389 20.727C23.5377 20.1872 23.9445 19.7529 24.4594 19.4239C24.9743 19.0951 25.5591 18.847 26.2139 18.6794C26.875 18.5119 27.5679 18.394 28.2926 18.3257C29.1444 18.2389 29.831 18.1582 30.3522 18.0838C30.8735 18.0031 31.2517 17.8852 31.4869 17.7301C31.722 17.575 31.8397 17.3454 31.8397 17.0414V16.9855C31.8397 16.3961 31.649 15.94 31.2676 15.6174C30.8925 15.2947 30.3586 15.1334 29.6656 15.1334C28.9346 15.1334 28.353 15.2916 27.9207 15.6081C27.4885 15.9183 27.2024 16.3092 27.0625 16.7808L23.3056 16.4829C23.4963 15.6143 23.8714 14.8635 24.4308 14.2306C24.9902 13.5915 25.7117 13.1013 26.5953 12.7601C27.4853 12.4126 28.515 12.2389 29.6847 12.2389C30.4984 12.2389 31.2771 12.332 32.0209 12.5181C32.771 12.7042 33.4353 12.9928 34.0137 13.3837C34.5986 13.7746 35.0595 14.2771 35.3964 14.8914C35.7333 15.4995 35.9017 16.2285 35.9017 17.0786V26.7208H32.0494V24.7384H31.935C31.6998 25.1851 31.3852 25.5791 30.991 25.9204C30.597 26.2554 30.1233 26.5192 29.5703 26.7115C29.0173 26.8976 28.3784 26.9907 27.6537 26.9907ZM28.817 24.2544C29.4146 24.2544 29.9422 24.1396 30.3999 23.9101C30.8575 23.6743 31.2168 23.3578 31.4773 22.9607C31.738 22.5636 31.8683 22.1137 31.8683 21.6112V20.0941C31.7411 20.1747 31.5663 20.2492 31.3438 20.3175C31.1278 20.3795 30.8829 20.4385 30.6096 20.4943C30.3363 20.5439 30.0629 20.5905 29.7896 20.634C29.5163 20.6711 29.2683 20.7053 29.0458 20.7363C28.5691 20.8046 28.1527 20.9132 27.7968 21.062C27.4408 21.2109 27.1642 21.4126 26.9672 21.6671C26.7701 21.9152 26.6716 22.2254 26.6716 22.5977C26.6716 23.1376 26.8718 23.5502 27.2723 23.8356C27.6791 24.1148 28.1941 24.2544 28.817 24.2544ZM45.5009 12.425V15.4033H36.6807V12.425H45.5009ZM38.6832 9H42.7452V22.3278C42.7452 22.6939 42.8024 22.9793 42.9168 23.1841C43.0313 23.3826 43.1902 23.5223 43.3936 23.6029C43.6034 23.6835 43.8449 23.7239 44.1182 23.7239C44.309 23.7239 44.4996 23.7084 44.6904 23.6774C44.8811 23.6401 45.0273 23.6122 45.129 23.5936L45.7679 26.544C45.5645 26.606 45.2784 26.6774 44.9097 26.758C44.541 26.8449 44.0928 26.8976 43.5652 26.9162C42.5863 26.9535 41.7281 26.8263 40.9907 26.5346C40.2596 26.243 39.6908 25.7901 39.2839 25.1758C38.8771 24.5615 38.6768 23.7859 38.6832 22.849V9ZM53.3217 27C51.8152 27 50.5184 26.7022 49.4314 26.1066C48.3507 25.5047 47.5179 24.6546 46.933 23.5563C46.3483 22.4519 46.0559 21.1458 46.0559 19.638C46.0559 18.1675 46.3483 16.8769 46.933 15.7663C47.5179 14.6556 48.3411 13.7901 49.4027 13.1696C50.4707 12.5491 51.7229 12.2389 53.1596 12.2389C54.1258 12.2389 55.0254 12.3909 55.8581 12.6949C56.6972 12.9928 57.4283 13.4426 58.0512 14.0445C58.6805 14.6463 59.17 15.4033 59.5196 16.3154C59.8692 17.2213 60.0441 18.2823 60.0441 19.4985V20.5873H47.6768V18.1303H56.2204C56.2204 17.5595 56.0933 17.0538 55.839 16.6132C55.5847 16.1727 55.2319 15.8283 54.7806 15.5801C54.3357 15.3257 53.8175 15.1986 53.2263 15.1986C52.6098 15.1986 52.0631 15.3382 51.5863 15.6174C51.1159 15.8904 50.7472 16.2596 50.4802 16.7249C50.2132 17.1841 50.0766 17.696 50.0702 18.2606V20.5967C50.0702 21.3041 50.2037 21.9152 50.4707 22.4302C50.744 22.9452 51.1286 23.3423 51.6244 23.6215C52.1202 23.9007 52.7083 24.0404 53.3885 24.0404C53.8398 24.0404 54.253 23.9783 54.628 23.8542C55.0031 23.7301 55.3241 23.544 55.5912 23.2957C55.8581 23.0476 56.0615 22.7435 56.2013 22.3837L59.9582 22.6256C59.7676 23.5067 59.3766 24.2761 58.7854 24.9338C58.2006 25.5853 57.4441 26.0941 56.516 26.4602C55.5943 26.8201 54.5295 27 53.3217 27ZM61.3523 26.7208V12.425H65.2237V14.9473H65.3952C65.7004 14.1096 66.2089 13.4488 66.9209 12.9648C67.6329 12.4809 68.4847 12.2389 69.4764 12.2389C70.4808 12.2389 71.3357 12.484 72.0413 12.9741C72.7469 13.4581 73.2174 14.1158 73.4526 14.9473H73.6051C73.9039 14.1282 74.4442 13.4736 75.2262 12.9835C76.0144 12.4871 76.9456 12.2389 78.02 12.2389C79.3867 12.2389 80.4959 12.6639 81.3478 13.514C82.206 14.3578 82.635 15.5553 82.635 17.1065V26.7208H78.5826V17.8883C78.5826 17.0941 78.3664 16.4984 77.9341 16.1013C77.5019 15.7042 76.9615 15.5057 76.3132 15.5057C75.5757 15.5057 75.0004 15.7353 74.5873 16.1944C74.1741 16.6474 73.9675 17.2461 73.9675 17.9907V26.7208H70.0294V17.8045C70.0294 17.1034 69.8228 16.545 69.4096 16.1293C69.0028 15.7135 68.4656 15.5057 67.7981 15.5057C67.3469 15.5057 66.94 15.6174 66.5777 15.8407C66.2217 16.0579 65.9388 16.365 65.729 16.7622C65.5192 17.1531 65.4143 17.6122 65.4143 18.1396V26.7208H61.3523ZM91.1758 27C89.6692 27 88.3724 26.7022 87.2854 26.1066C86.2047 25.5047 85.3719 24.6546 84.7872 23.5563C84.2023 22.4519 83.9099 21.1458 83.9099 19.638C83.9099 18.1675 84.2023 16.8769 84.7872 15.7663C85.3719 14.6556 86.1952 13.7901 87.2568 13.1696C88.3247 12.5491 89.5771 12.2389 91.0137 12.2389C91.98 12.2389 92.8794 12.3909 93.7122 12.6949C94.5513 12.9928 95.2823 13.4426 95.9051 14.0445C96.5341 14.6463 97.0242 15.4033 97.3732 16.3154C97.7233 17.2213 97.8978 18.2823 97.8978 19.4985V20.5873H85.5309V18.1303H94.0745C94.0745 17.5595 93.9474 17.0538 93.6931 16.6132C93.4389 16.1727 93.0861 15.8283 92.6347 15.5801C92.1897 15.3257 91.6717 15.1986 91.0804 15.1986C90.4638 15.1986 89.9171 15.3382 89.4404 15.6174C88.9699 15.8904 88.6013 16.2596 88.3342 16.7249C88.0672 17.1841 87.9306 17.696 87.9243 18.2606V20.5967C87.9243 21.3041 88.0578 21.9152 88.3247 22.4302C88.598 22.9452 88.9827 23.3423 89.4785 23.6215C89.9744 23.9007 90.5623 24.0404 91.2425 24.0404C91.6939 24.0404 92.107 23.9783 92.4821 23.8542C92.8571 23.7301 93.1782 23.544 93.4452 23.2957C93.7122 23.0476 93.9156 22.7435 94.0555 22.3837L97.8125 22.6256C97.6216 23.5067 97.2304 24.2761 96.6396 24.9338C96.0547 25.5853 95.2982 26.0941 94.3701 26.4602C93.4484 26.8201 92.3836 27 91.1758 27ZM103.268 18.4561V26.7208H99.2068V12.425H103.077V14.9473H103.249C103.574 14.1158 104.117 13.4581 104.88 12.9741C105.642 12.484 106.568 12.2389 107.654 12.2389C108.672 12.2389 109.559 12.4561 110.315 12.8904C111.071 13.3247 111.659 13.9452 112.079 14.7518C112.498 15.5522 112.708 16.5078 112.708 17.6184V26.7208H108.646V18.3257C108.653 17.4509 108.424 16.7684 107.959 16.2782C107.495 15.7818 106.857 15.5336 106.043 15.5336C105.497 15.5336 105.013 15.6484 104.593 15.878C104.181 16.1075 103.857 16.4426 103.621 16.8831C103.393 17.3175 103.275 17.8418 103.268 18.4561ZM122.357 12.425V15.4033H113.538V12.425H122.357ZM115.54 9H119.602V22.3278C119.602 22.6939 119.659 22.9793 119.774 23.1841C119.888 23.3826 120.047 23.5223 120.251 23.6029C120.46 23.6835 120.701 23.7239 120.975 23.7239C121.165 23.7239 121.356 23.7084 121.547 23.6774C121.738 23.6401 121.884 23.6122 121.985 23.5936L122.625 26.544C122.421 26.606 122.135 26.6774 121.767 26.758C121.398 26.8449 120.95 26.8976 120.422 26.9162C119.443 26.9535 118.585 26.8263 117.847 26.5346C117.117 26.243 116.547 25.7901 116.14 25.1758C115.734 24.5615 115.533 23.7859 115.54 22.849V9Z" fill="#121212"/>
<path d="M126 13.1594V12.375H129.623V13.1594H128.272V16.875H127.35V13.1594H126ZM130.219 12.375H131.369L132.584 15.3984H132.636L133.85 12.375H135V16.875H134.095V13.946H134.059L132.918 16.853H132.301L131.16 13.9351H131.124V16.875H130.219V12.375Z" fill="#121212"/>
</svg>
