<svg width="120" height="32" viewBox="0 0 120 32" fill="none" xmlns="http://www.w3.org/2000/svg">
<path d="M11.4084 14.668L8.10286 14.8666C8.04636 14.5908 7.92487 14.3426 7.7384 14.122C7.55193 13.8959 7.30614 13.7166 7.00101 13.5843C6.70153 13.4464 6.34272 13.3775 5.92458 13.3775C5.36518 13.3775 4.89336 13.4933 4.50913 13.7249C4.12489 13.951 3.93277 14.2544 3.93277 14.6349C3.93277 14.9383 4.05708 15.1948 4.3057 15.4043C4.55433 15.6139 4.98094 15.7821 5.58555 15.909L7.94182 16.3723C9.20753 16.626 10.1512 17.0341 10.7727 17.5967C11.3943 18.1592 11.705 18.8983 11.705 19.8138C11.705 20.6467 11.4537 21.3774 10.9507 22.0062C10.4535 22.635 9.76979 23.1258 8.89955 23.4788C8.03505 23.8263 7.03774 24 5.90763 24C4.18422 24 2.81114 23.6498 1.7884 22.9493C0.771297 22.2433 0.175166 21.2837 0 20.0703L3.55136 19.8883C3.65871 20.4012 3.91864 20.7929 4.33113 21.0631C4.74362 21.3278 5.27194 21.4602 5.91611 21.4602C6.54897 21.4602 7.05751 21.3416 7.44175 21.1045C7.83163 20.8618 8.0294 20.5502 8.03505 20.1696C8.0294 19.8497 7.89097 19.5878 7.61974 19.3837C7.34851 19.1741 6.93037 19.0142 6.36532 18.9038L4.11076 18.4654C2.83939 18.2172 1.89293 17.787 1.27137 17.1748C0.655462 16.5626 0.347508 15.7821 0.347508 14.8335C0.347508 14.0172 0.573529 13.314 1.02557 12.7239C1.48326 12.1337 2.1246 11.6787 2.94958 11.3588C3.7802 11.0389 4.7521 10.879 5.86525 10.879C7.50955 10.879 8.80356 11.2182 9.7472 11.8966C10.6965 12.575 11.2502 13.4988 11.4084 14.668ZM19.7101 11.0445V13.6918H11.8699V11.0445H19.7101ZM13.6498 8H17.2605V19.8469C17.2605 20.1723 17.3114 20.426 17.4131 20.6081C17.5148 20.7845 17.6561 20.9087 17.8369 20.9803C18.0234 21.052 18.2381 21.0879 18.481 21.0879C18.6506 21.0879 18.82 21.0741 18.9896 21.0466C19.1591 21.0134 19.289 20.9886 19.3795 20.9721L19.9474 23.5946C19.7666 23.6498 19.5123 23.7132 19.1845 23.7849C18.8568 23.8621 18.4584 23.909 17.9894 23.9255C17.1193 23.9586 16.3565 23.8456 15.701 23.5863C15.0511 23.3271 14.5455 22.9245 14.1838 22.3785C13.8222 21.8325 13.6442 21.1431 13.6498 20.3102V8ZM24.5811 23.9918C23.7505 23.9918 23.0102 23.8511 22.3604 23.5698C21.7106 23.283 21.1964 22.8611 20.8179 22.304C20.4449 21.7415 20.2584 21.0411 20.2584 20.2027C20.2584 19.4967 20.3912 18.9038 20.6568 18.424C20.9224 17.9442 21.284 17.5581 21.7417 17.2657C22.1994 16.9734 22.7192 16.7529 23.3012 16.6039C23.8889 16.455 24.5048 16.3503 25.1489 16.2895C25.9062 16.2123 26.5164 16.1406 26.9797 16.0745C27.4431 16.0028 27.7793 15.898 27.9884 15.7601C28.1974 15.6222 28.302 15.4181 28.302 15.1479V15.0982C28.302 14.5743 28.1324 14.1689 27.7934 13.8821C27.46 13.5953 26.9854 13.4519 26.3694 13.4519C25.7196 13.4519 25.2026 13.5926 24.8184 13.8738C24.4342 14.1496 24.1799 14.4971 24.0555 14.9162L20.7161 14.6515C20.8856 13.8794 21.219 13.212 21.7162 12.6494C22.2135 12.0813 22.8548 11.6456 23.6402 11.3423C24.4314 11.0334 25.3467 10.879 26.3864 10.879C27.1097 10.879 27.8019 10.9617 28.463 11.1272C29.1298 11.2927 29.7202 11.5491 30.2344 11.8966C30.7543 12.244 31.164 12.6908 31.4634 13.2368C31.7629 13.7773 31.9127 14.4254 31.9127 15.181V23.7518H28.4884V21.9897H28.3867C28.1776 22.3868 27.8979 22.737 27.5476 23.0403C27.1973 23.3381 26.7763 23.5726 26.2847 23.7436C25.7931 23.909 25.2252 23.9918 24.5811 23.9918ZM25.6151 21.5595C26.1463 21.5595 26.6153 21.4574 27.0221 21.2534C27.4289 21.0438 27.7482 20.7625 27.9798 20.4095C28.2115 20.0565 28.3274 19.6566 28.3274 19.2099V17.8615C28.2143 17.9331 28.0589 17.9993 27.8612 18.06C27.6691 18.1151 27.4515 18.1676 27.2086 18.2172C26.9656 18.2613 26.7226 18.3027 26.4797 18.3413C26.2367 18.3743 26.0163 18.4047 25.8185 18.4322C25.3948 18.493 25.0247 18.5895 24.7082 18.7218C24.3918 18.8542 24.146 19.0335 23.9708 19.2596C23.7956 19.4802 23.7081 19.7559 23.7081 20.0869C23.7081 20.5667 23.8861 20.9335 24.2421 21.1872C24.6037 21.4354 25.0614 21.5595 25.6151 21.5595ZM40.4452 11.0445V13.6918H32.6051V11.0445H40.4452ZM34.385 8H37.9957V19.8469C37.9957 20.1723 38.0466 20.426 38.1483 20.6081C38.25 20.7845 38.3912 20.9087 38.572 20.9803C38.7586 21.052 38.9733 21.0879 39.2162 21.0879C39.3858 21.0879 39.5552 21.0741 39.7248 21.0466C39.8943 21.0134 40.0242 20.9886 40.1147 20.9721L40.6826 23.5946C40.5018 23.6498 40.2475 23.7132 39.9197 23.7849C39.592 23.8621 39.1936 23.909 38.7246 23.9255C37.8545 23.9586 37.0916 23.8456 36.4362 23.5863C35.7863 23.3271 35.2807 22.9245 34.919 22.3785C34.5574 21.8325 34.3794 21.1431 34.385 20.3102V8ZM47.3971 24C46.0579 24 44.9052 23.7352 43.939 23.2058C42.9784 22.6708 42.2382 21.9152 41.7183 20.939C41.1985 19.9573 40.9385 18.7962 40.9385 17.456C40.9385 16.1489 41.1985 15.0017 41.7183 14.0145C42.2382 13.0272 42.9699 12.2578 43.9135 11.7063C44.8628 11.1548 45.9759 10.879 47.253 10.879C48.1119 10.879 48.9114 11.0141 49.6517 11.2844C50.3975 11.5491 51.0473 11.949 51.6011 12.484C52.1604 13.019 52.5956 13.6918 52.9063 14.5026C53.2171 15.3078 53.3725 16.2509 53.3725 17.332V18.2999H42.3794V16.1158H49.9737C49.9737 15.6084 49.8607 15.1589 49.6347 14.7673C49.4086 14.3757 49.095 14.0696 48.6939 13.849C48.2984 13.6229 47.8378 13.5098 47.3123 13.5098C46.7643 13.5098 46.2783 13.6339 45.8545 13.8821C45.4364 14.1248 45.1086 14.4529 44.8713 14.8666C44.634 15.2747 44.5125 15.7297 44.5069 16.2316V18.3082C44.5069 18.9369 44.6255 19.4802 44.8628 19.938C45.1058 20.3957 45.4476 20.7487 45.8884 20.9969C46.3291 21.2451 46.8518 21.3692 47.4564 21.3692C47.8576 21.3692 48.2249 21.314 48.5583 21.2037C48.8916 21.0934 49.177 20.928 49.4144 20.7073C49.6517 20.4868 49.8325 20.2164 49.9568 19.8966L53.2962 20.1117C53.1267 20.8949 52.7792 21.5788 52.2537 22.1634C51.7339 22.7425 51.0614 23.1948 50.2364 23.5202C49.4172 23.8401 48.4706 24 47.3971 24ZM54.5354 23.7518V11.0445H57.9766V13.2865H58.1291C58.4003 12.5419 58.8524 11.9545 59.4852 11.5243C60.1181 11.0941 60.8753 10.879 61.7568 10.879C62.6496 10.879 63.4095 11.0969 64.0367 11.5326C64.6639 11.9628 65.0821 12.5474 65.2912 13.2865H65.4268C65.6924 12.5584 66.1727 11.9766 66.8677 11.5408C67.5683 11.0996 68.3961 10.879 69.3511 10.879C70.566 10.879 71.552 11.2568 72.3092 12.0124C73.072 12.7625 73.4534 13.827 73.4534 15.2058V23.7518H69.8512V15.9007C69.8512 15.1948 69.6591 14.6653 69.2748 14.3123C68.8906 13.9593 68.4103 13.7828 67.8339 13.7828C67.1784 13.7828 66.6671 13.9869 66.2998 14.395C65.9325 14.7977 65.7489 15.3299 65.7489 15.9917V23.7518H62.2484V15.8263C62.2484 15.203 62.0647 14.7067 61.6974 14.3371C61.3358 13.9676 60.8583 13.7828 60.265 13.7828C59.8639 13.7828 59.5022 13.8821 59.1801 14.0807C58.8637 14.2737 58.6123 14.5467 58.4257 14.8997C58.2393 15.2472 58.1461 15.6553 58.1461 16.1241V23.7518H54.5354ZM81.0451 24C79.706 24 78.5532 23.7352 77.587 23.2058C76.6264 22.6708 75.8862 21.9152 75.3664 20.939C74.8465 19.9573 74.5866 18.7962 74.5866 17.456C74.5866 16.1489 74.8465 15.0017 75.3664 14.0145C75.8862 13.0272 76.618 12.2578 77.5616 11.7063C78.5109 11.1548 79.6241 10.879 80.9011 10.879C81.76 10.879 82.5595 11.0141 83.2997 11.2844C84.0456 11.5491 84.6954 11.949 85.2489 12.484C85.8081 13.019 86.2437 13.6918 86.554 14.5026C86.8651 15.3078 87.0203 16.2509 87.0203 17.332V18.2999H76.0274V16.1158H83.6217C83.6217 15.6084 83.5088 15.1589 83.2827 14.7673C83.0568 14.3757 82.7432 14.0696 82.3419 13.849C81.9464 13.6229 81.4859 13.5098 80.9604 13.5098C80.4123 13.5098 79.9263 13.6339 79.5026 13.8821C79.0844 14.1248 78.7567 14.4529 78.5193 14.8666C78.282 15.2747 78.1605 15.7297 78.1549 16.2316V18.3082C78.1549 18.9369 78.2736 19.4802 78.5109 19.938C78.7538 20.3957 79.0957 20.7487 79.5364 20.9969C79.9772 21.2451 80.4998 21.3692 81.1045 21.3692C81.5057 21.3692 81.8729 21.314 82.2063 21.2037C82.5397 21.0934 82.8251 20.928 83.0624 20.7073C83.2997 20.4868 83.4805 20.2164 83.6049 19.8966L86.9444 20.1117C86.7748 20.8949 86.427 21.5788 85.9019 22.1634C85.3819 22.7425 84.7095 23.1948 83.8846 23.5202C83.0652 23.8401 82.1188 24 81.0451 24ZM91.7938 16.4054V23.7518H88.1838V11.0445H91.6242V13.2865H91.7768C92.0658 12.5474 92.5482 11.9628 93.2268 11.5326C93.9044 11.0969 94.727 10.879 95.6928 10.879C96.5972 10.879 97.3857 11.072 98.0574 11.4581C98.73 11.8442 99.2525 12.3957 99.6259 13.1127C99.9984 13.8242 100.185 14.6736 100.185 15.6608V23.7518H96.5742V16.2895C96.5802 15.5119 96.3765 14.9052 95.9639 14.4695C95.5513 14.0283 94.9836 13.8077 94.2608 13.8077C93.7749 13.8077 93.3453 13.9097 92.9719 14.1138C92.6053 14.3178 92.3172 14.6156 92.1075 15.0072C91.9047 15.3933 91.7998 15.8594 91.7938 16.4054ZM108.762 11.0445V13.6918H100.922V11.0445H108.762ZM102.702 8H106.313V19.8469C106.313 20.1723 106.363 20.426 106.466 20.6081C106.567 20.7845 106.709 20.9087 106.889 20.9803C107.075 21.052 107.29 21.0879 107.533 21.0879C107.703 21.0879 107.872 21.0741 108.042 21.0466C108.212 21.0134 108.341 20.9886 108.431 20.9721L109 23.5946C108.818 23.6498 108.564 23.7132 108.237 23.7849C107.909 23.8621 107.511 23.909 107.042 23.9255C106.172 23.9586 105.409 23.8456 104.753 23.5863C104.104 23.3271 103.597 22.9245 103.236 22.3785C102.874 21.8325 102.696 21.1431 102.702 20.3102V8Z" fill="#E1E1E1"/>
<path d="M112 11.6973V11H115.22V11.6973H114.02V15H113.2V11.6973H112ZM115.75 11H116.773L117.853 13.6875H117.898L118.978 11H120V15H119.196V12.3965H119.164L118.149 14.9805H117.601L116.587 12.3867H116.554V15H115.75V11Z" fill="#E1E1E1"/>
</svg>
